<?xml version="1.0" encoding="UTF-8"?>
<svg version="1.1" xmlns="http://www.w3.org/2000/svg" width="63" height="54">
<path d="M0 0 C20.79 0 41.58 0 63 0 C63 17.82 63 35.64 63 54 C42.21 54 21.42 54 0 54 C0 36.18 0 18.36 0 0 Z " fill="#FE8856" transform="translate(0,0)"/>
<path d="M0 0 C0 2.31 0 4.62 0 7 C-0.55429687 7.19335938 -1.10859375 7.38671875 -1.6796875 7.5859375 C-2.40414063 7.84632812 -3.12859375 8.10671875 -3.875 8.375 C-4.59429687 8.63023438 -5.31359375 8.88546875 -6.0546875 9.1484375 C-8.18157994 9.93877783 -8.18157994 9.93877783 -10 12 C-10.39764263 13.98821313 -10.73775349 15.98944339 -11 18 C-10.16855469 18.03738281 -9.33710938 18.07476563 -8.48046875 18.11328125 C-7.39378906 18.17902344 -6.30710937 18.24476562 -5.1875 18.3125 C-3.56908203 18.39951172 -3.56908203 18.39951172 -1.91796875 18.48828125 C1.31125541 19.05458428 2.03070408 19.48851204 4 22 C4.2981028 24.92257643 4.41882117 27.58345783 4.375 30.5 C4.38660156 31.27214844 4.39820312 32.04429688 4.41015625 32.83984375 C4.38078533 38.4888505 4.38078533 38.4888505 2.71923828 40.71923828 C-0.28034445 42.95380389 -3.90841986 42.42896364 -7.5 42.375 C-8.27214844 42.38660156 -9.04429688 42.39820313 -9.83984375 42.41015625 C-15.4244323 42.38112026 -15.4244323 42.38112026 -17.71704102 40.86303711 C-20.65316117 36.59937719 -19.46502756 30.16998901 -19.4375 25.1875 C-19.45748047 23.91583984 -19.47746094 22.64417969 -19.49804688 21.33398438 C-19.49197698 9.74654971 -19.49197698 9.74654971 -15 5 C-9.61690814 0.25775241 -6.96760866 -0.11238078 0 0 Z " fill="#81452B" transform="translate(27,6)"/>
<path d="M0 0 C0 2.31 0 4.62 0 7 C-0.62648438 7.12375 -1.25296875 7.2475 -1.8984375 7.375 C-4.49619326 8.03058505 -6.65902397 8.68614325 -9 10 C-10.45404496 12.76105166 -10.63703924 14.83705627 -11 18 C-10.16855469 18.03738281 -9.33710937 18.07476563 -8.48046875 18.11328125 C-7.39378906 18.17902344 -6.30710937 18.24476562 -5.1875 18.3125 C-3.56908203 18.39951172 -3.56908203 18.39951172 -1.91796875 18.48828125 C1.31125541 19.05458428 2.03070408 19.48851204 4 22 C4.2981028 24.92257643 4.41882117 27.58345783 4.375 30.5 C4.38660156 31.27214844 4.39820312 32.04429688 4.41015625 32.83984375 C4.38078533 38.4888505 4.38078533 38.4888505 2.71923828 40.71923828 C-0.28034445 42.95380389 -3.90841986 42.42896364 -7.5 42.375 C-8.27214844 42.38660156 -9.04429688 42.39820313 -9.83984375 42.41015625 C-15.42256514 42.38112997 -15.42256514 42.38112997 -17.71923828 40.86523438 C-19.58145157 38.15320435 -19.38861393 36.02532014 -19.3984375 32.7578125 C-19.40230469 31.52675781 -19.40617187 30.29570313 -19.41015625 29.02734375 C-19.39275391 27.09568359 -19.39275391 27.09568359 -19.375 25.125 C-19.38660156 23.84496094 -19.39820313 22.56492187 -19.41015625 21.24609375 C-19.40628906 20.01246094 -19.40242188 18.77882813 -19.3984375 17.5078125 C-19.39336182 15.81615967 -19.39336182 15.81615967 -19.38818359 14.09033203 C-18.79193353 9.34358154 -16.65227464 6.17621634 -12.9375 3.25 C-8.2202719 -0.36319599 -5.81028044 -0.0937142 0 0 Z " fill="#81452B" transform="translate(54,6)"/>
</svg>
